<svg xmlns="http://www.w3.org/2000/svg" width="28" height="20" fill="none" viewBox="0 0 28 20">
  <path fill="#FFDB45" d="M12.862 11.212l-.57.822.57-.822zm2.276 0l.57.822-.57-.822zM3 2h22V0H3v2zm23 1v14h2V3h-2zm-1 15H3v2h22v-2zM2 17V3H0v14h2zm1 1a1 1 0 01-1-1H0a3 3 0 003 3v-2zm23-1a1 1 0 01-1 1v2a3 3 0 003-3h-2zM25 2a1 1 0 011 1h2a3 3 0 00-3-3v2zM3 0a3 3 0 00-3 3h2a1 1 0 011-1V0zM.43 3.822l11.862 8.212 1.139-1.644L1.569 2.178.431 3.822zm15.278 8.212l11.861-8.212-1.138-1.644-11.862 8.212 1.139 1.644zm-3.416 0a3 3 0 003.416 0l-1.139-1.644a1 1 0 01-1.138 0l-1.139 1.644z"/>
</svg>
