<svg xmlns="http://www.w3.org/2000/svg" width="32" height="32" fill="none" viewBox="0 0 32 32">
  <path fill="#fff" d="M15.118 3.133l-.294-.956.294.956zm1.764 0l-.294.955.294-.955zm11.412 3.511l.294-.956-.294.956zm-24.588 0l-.294-.956.294.956zm.908.428A1 1 0 103.386 8.65l1.228-1.58zM13 14.862l-.614.789a1 1 0 00.614.21v-1zm6 0v1a1 1 0 00.614-.211L19 14.86zm9.614-6.211a1 1 0 10-1.228-1.58l1.228 1.58zM28 7.6V22.86h2V7.6h-2zM27 23.86H5v2h22v-2zm-23-1V7.6H2V22.86h2zM4 7.6l11.412-3.512-.588-1.911L3.412 5.688 4 7.6zm12.588-3.512L28 7.6l.588-1.912-11.412-3.511-.588 1.911zm-1.176 0a2 2 0 011.176 0l.588-1.911a4 4 0 00-2.352 0l.588 1.911zM5 23.861a1 1 0 01-1-1H2a3 3 0 003 3v-2zm23-1a1 1 0 01-1 1v2a3 3 0 003-3h-2zM30 7.6a2 2 0 00-1.412-1.912L28 7.6h2zm-26 0l-.588-1.912A2 2 0 002 7.6h2zm-.614 1.05l9 7 1.228-1.578-9-7L3.386 8.65zM13 15.862h6v-2h-6v2zm6.614-.21l9-7-1.228-1.58-9 7 1.228 1.58z"/>
</svg>
