<svg xmlns="http://www.w3.org/2000/svg" width="28" height="28" fill="none" viewBox="0 0 28 28">
  <path fill="#fff" d="M10.874 4.498l.235.713-.235-.713zm.342-.362l-.728-.182.728.182zm-2.222.921L8.61 5.7l.385-.643zm.498.014l.339.67-.339-.67zM5.946 3.67l-.53-.53.53.53zm.61-.075l.386-.643-.385.643zM3.595 6.557l-.643.385.643-.385zm.075-.611l.53.53-.53-.53zm1.402 3.546l-.669-.339.67.339zm-.014-.498L5.7 8.61l-.643.385zm-.92 2.222l-.183-.728.182.728zm.361-.341l.713.234-.713-.235zm-3.12 1.03l.183.728-.182-.728zm0 4.19l.183-.728-.182.728zm3.12 1.03l-.712.235.712-.235zm-.362-.341l-.182.728.182-.728zm.921 2.222l.643.385-.643-.385zm.014-.498l.67-.338-.67.338zM3.67 22.054l-.53.53.53-.53zm-.075-.61l-.643-.386.643.385zm2.963 2.962l-.386-.643.386.643zm-.611-.075l.53-.53-.53.53zm3.546-1.402l.339-.67-.339.67zm-.498.014l.386.643-.386-.643zm1.914.78l-.712.238.712-.237zm-.315-.318l-.255.705.255-.705zm1.293 3.253l.712-.237-.712.237zm4.228 0l-.712-.237.712.237zm1.293-3.253l.256.705-.256-.705zm-.315.319l.712.237-.712-.237zm1.597-.662l.335-.67-.335.67zm-.449-.003l-.318-.679.318.68zm3.216 1.386l-.336.671.336-.67zm2.99-2.99l-.671.336.67-.335zm-1.387-3.215l.68.319-.68-.319zm.003.449l.67-.336-.67.336zm.662-1.597l.237.712-.237-.712zm-.32.315l-.704-.256.705.256zm3.254-1.293l-.237-.712.237.712zm0-4.228l.237-.711-.237.711zm-3.253-1.293l.705-.255-.705.255zm.319.315l-.238.711.238-.711zm-.662-1.597l.67.336-.67-.336zm-.003.449l.68-.319-.68.319zm1.293-3.793l-.53.53.53-.53zm.093.577l-.67-.335.67.335zm-2.99-2.99l-.335-.67.336.67zm.578.094l.53-.53-.53.53zM18.24 4.941l.319-.68-.319.68zm.449-.003l.335.67-.335-.67zm-1.905-.802l.728-.182-.728.182zm.341.362l-.234.713.235-.713zm-5.22-3.12l.728.183-.728-.182zm4.19 0l-.728.183.728-.182zM15.61.25h-3.22v1.5h3.22V.25zm1.902 3.704l-.69-2.757-1.455.364.69 2.757 1.455-.364zm-.62 1.257a9.18 9.18 0 011.03.409l.637-1.358a10.678 10.678 0 00-1.2-.476l-.468 1.425zm4.228-2.327l-2.767 1.383.671 1.342 2.767-1.384-.67-1.341zm3.762 2.553l-2.319-2.32-1.06 1.062 2.319 2.318 1.06-1.06zm-1.15 4.21l1.384-2.767-1.341-.671-1.384 2.767 1.342.67zm-1.352.431c.118.251.224.508.32.77l1.41-.51c-.11-.306-.235-.605-.372-.897l-1.358.637zm4.515 1.097l-2.934-.979-.474 1.423 2.934.979.474-1.424zm.855 4.465v-3.28h-1.5v3.28h1.5zm-3.79 2.164l2.935-.978-.474-1.424-2.934.979.474 1.423zm-1.26-.652c-.096.262-.202.519-.32.77l1.358.637c.137-.292.261-.591.372-.896l-1.41-.512zm2.416 3.968l-1.383-2.767-1.342.671 1.384 2.767 1.341-.67zm-2.553 3.762l2.32-2.319-1.062-1.06-2.318 2.319 1.06 1.06zm-4.21-1.15l2.767 1.384.671-1.341-2.767-1.384-.67 1.342zm-.431-1.352c-.251.118-.508.224-.77.32l.51 1.41c.306-.11.605-.235.897-.372l-.637-1.358zm-1.096 4.515l.978-2.934-1.423-.474-.979 2.934 1.424.474zm-4.466.855h3.28v-1.5h-3.28v1.5zm-2.164-3.79l.979 2.935 1.422-.474-.978-2.934-1.423.474zm.652-1.26a9.188 9.188 0 01-1.017-.44l-.678 1.338c.383.193.778.364 1.184.512l.511-1.41zm-3.906 2.349l2.438-1.463L8.61 22.3 6.17 23.763l.771 1.286zM3.14 22.585l2.276 2.276 1.061-1.06L4.2 21.523l-1.06 1.06zm1.275-3.965L2.95 21.058l1.286.771L5.7 19.391l-1.286-.771zm1.327-.45a9.19 9.19 0 01-.53-1.279l-1.425.469c.169.514.375 1.01.616 1.487l1.339-.678zm-4.544-1.348l2.757.69.364-1.456-2.757-.689-.364 1.455zM.25 12.39v3.22h1.5v-3.22H.25zm3.704-1.902l-2.757.69.364 1.455 2.757-.69-.364-1.455zm1.257.62c.145-.44.322-.868.53-1.277l-1.339-.678c-.24.477-.447.973-.616 1.487l1.425.469zM2.95 6.943L4.414 9.38 5.7 8.61 4.237 6.17l-1.286.771zM5.415 3.14L3.14 5.415 4.2 6.476 6.477 4.2l-1.06-1.06zM9.38 4.414L6.942 2.95l-.771 1.286L8.609 5.7l.771-1.286zm.45 1.327c.41-.208.837-.385 1.279-.53l-.469-1.425c-.514.169-1.01.375-1.487.616l.678 1.339zm1.348-4.544l-.69 2.757 1.456.364.689-2.757-1.455-.364zm-.07 4.014c.402-.132.727-.46.836-.893l-1.456-.364a.235.235 0 01.152-.168l.469 1.425zm-2.5.49c.383.229.845.23 1.223.04l-.678-1.339a.235.235 0 01.227.012L8.61 5.7zM6.477 4.2a.25.25 0 01-.305.037l.771-1.286a1.25 1.25 0 00-1.527.188L6.476 4.2zM4.237 6.17a.25.25 0 01-.037.306l-1.06-1.06a1.25 1.25 0 00-.189 1.526l1.286-.771zm1.504 3.66c.19-.377.189-.839-.04-1.221l-1.287.771a.235.235 0 01-.012-.227l1.339.678zm-1.423 2.114c.433-.109.76-.434.893-.835l-1.425-.469a.235.235 0 01.168-.152l.364 1.456zm-2.568.446a.25.25 0 01-.19.243l-.363-1.455A1.25 1.25 0 00.25 12.39h1.5zm-.19 2.977a.25.25 0 01.19.243H.25c0 .573.39 1.073.947 1.212l.364-1.455zm3.65 1.524a1.265 1.265 0 00-.892-.835l-.364 1.456a.235.235 0 01-.168-.152l1.425-.469zm.49 2.5c.23-.382.231-.844.04-1.221l-1.338.677a.235.235 0 01.012-.227l1.286.771zm-1.5 2.133a.25.25 0 01.037.305l-1.286-.771a1.25 1.25 0 00.188 1.527l1.06-1.061zm1.97 2.239a.25.25 0 01.306.037l-1.06 1.06a1.25 1.25 0 001.526.189l-.771-1.286zm3.66-1.504c-.377-.19-.839-.189-1.221.04l.771 1.287a.235.235 0 01-.227.012l.678-1.339zm1.79 1.227a1.264 1.264 0 00-.771-.787l-.511 1.41a.236.236 0 01-.142-.148l1.423-.474zm.74 2.764a.25.25 0 01.238.17l-1.424.475c.17.51.648.855 1.186.855v-1.5zm3.042.17a.25.25 0 01.238-.17v1.5a1.25 1.25 0 001.186-.855l-1.424-.474zm1.75-3.72c-.354.128-.646.41-.771.787l1.423.474a.236.236 0 01-.141.149l-.512-1.41zm1.872-.309a1.265 1.265 0 00-1.102-.011l.637 1.358a.236.236 0 01-.206-.005l.671-1.342zm2.479 1.43a.25.25 0 01.288-.046l-.67 1.341a1.25 1.25 0 001.442-.234l-1.06-1.06zm2.272-2.03a.25.25 0 01.046-.288l1.061 1.06c.38-.38.475-.961.234-1.443l-1.341.671zm-1.395-3.87c-.16.342-.166.748.011 1.103l1.342-.67c.037.073.031.149.005.205l-1.358-.637zm1.107-1.54a1.264 1.264 0 00-.787.77l1.41.512a.236.236 0 01-.15.14l-.474-1.422zm2.763-.741a.25.25 0 01.17-.238l.475 1.424c.51-.17.855-.648.855-1.186h-1.5zm.17-3.042a.25.25 0 01-.17-.238h1.5a1.25 1.25 0 00-.855-1.185l-.474 1.423zm-3.72-1.75c.128.354.41.646.787.771l.474-1.423a.236.236 0 01.149.142l-1.41.51zm-.309-1.872c-.177.355-.17.761-.011 1.102l1.358-.637a.236.236 0 01-.005.206l-1.342-.671zm1.43-2.479a.25.25 0 01-.046-.288l1.341.67a1.25 1.25 0 00-.234-1.442l-1.06 1.06zm-2.03-2.272a.25.25 0 01-.288-.046l1.06-1.061a1.25 1.25 0 00-1.443-.234l.671 1.341zm-3.87 1.395c.342.16.748.166 1.103-.011l-.67-1.342a.236.236 0 01.205-.005l-.637 1.358zm-1.865-1.302c.109.433.434.76.835.893l.469-1.425c.065.021.13.079.152.168l-1.456.364zM12.39.25a1.25 1.25 0 00-1.212.947l1.455.364a.25.25 0 01-.243.189V.25zm3.22 1.5a.25.25 0 01-.243-.19l1.455-.363A1.25 1.25 0 0015.61.25v1.5zM18.25 14A4.25 4.25 0 0114 18.25v1.5A5.75 5.75 0 0019.75 14h-1.5zM14 18.25A4.25 4.25 0 019.75 14h-1.5A5.75 5.75 0 0014 19.75v-1.5zM9.75 14A4.25 4.25 0 0114 9.75v-1.5A5.75 5.75 0 008.25 14h1.5zM14 9.75A4.25 4.25 0 0118.25 14h1.5A5.75 5.75 0 0014 8.25v1.5z"/>
</svg>
