<svg width="34" height="34" viewBox="0 0 30 30" fill="none" xmlns="http://www.w3.org/2000/svg">
<path d="M7.5 24.375L6.51361 24.5394C6.52999 24.6377 6.56099 24.7331 6.60557 24.8222L7.5 24.375ZM22.5 24.375L23.3944 24.8222C23.439 24.7331 23.47 24.6377 23.4864 24.5394L22.5 24.375ZM18.0509 16.1759C18.4414 15.7853 18.4414 15.1522 18.0509 14.7616C17.6603 14.3711 17.0272 14.3711 16.6366 14.7616L18.0509 16.1759ZM11.9491 19.4491C11.5586 19.8397 11.5586 20.4728 11.9491 20.8634C12.3397 21.2539 12.9728 21.2539 13.3634 20.8634L11.9491 19.4491ZM13.3634 14.7616C12.9728 14.3711 12.3397 14.3711 11.9491 14.7616C11.5586 15.1522 11.5586 15.7853 11.9491 16.1759L13.3634 14.7616ZM16.6366 20.8634C17.0272 21.2539 17.6603 21.2539 18.0509 20.8634C18.4414 20.4728 18.4414 19.8397 18.0509 19.4491L16.6366 20.8634ZM24.3125 7.5C24.3125 7.35875 24.4049 7.46757 23.9602 7.75432C23.5602 8.0122 22.9153 8.28225 22.0289 8.52397C20.2706 9.00352 17.7851 9.3125 15 9.3125V11.3125C17.9103 11.3125 20.5811 10.9919 22.5552 10.4535C23.535 10.1863 24.4003 9.85027 25.044 9.43519C25.643 9.04897 26.3125 8.4179 26.3125 7.5H24.3125ZM15 9.3125C12.2149 9.3125 9.72942 9.00352 7.97108 8.52397C7.08474 8.28225 6.43976 8.0122 6.03982 7.75432C5.59511 7.46757 5.6875 7.35875 5.6875 7.5H3.6875C3.6875 8.4179 4.35702 9.04897 4.956 9.43519C5.59974 9.85027 6.46498 10.1863 7.44484 10.4535C9.41889 10.9919 12.0897 11.3125 15 11.3125V9.3125ZM5.6875 7.5C5.6875 7.64125 5.59511 7.53243 6.03982 7.24568C6.43976 6.9878 7.08474 6.71775 7.97108 6.47603C9.72942 5.99648 12.2149 5.6875 15 5.6875V3.6875C12.0897 3.6875 9.41889 4.00812 7.44484 4.5465C6.46498 4.81373 5.59974 5.14973 4.956 5.56481C4.35702 5.95103 3.6875 6.5821 3.6875 7.5H5.6875ZM15 5.6875C17.7851 5.6875 20.2706 5.99648 22.0289 6.47603C22.9153 6.71775 23.5602 6.9878 23.9602 7.24568C24.4049 7.53243 24.3125 7.64125 24.3125 7.5H26.3125C26.3125 6.5821 25.643 5.95103 25.044 5.56481C24.4003 5.14973 23.535 4.81373 22.5552 4.5465C20.5811 4.00812 17.9103 3.6875 15 3.6875V5.6875ZM3.70111 7.6644L6.51361 24.5394L8.48639 24.2106L5.67389 7.3356L3.70111 7.6644ZM23.4864 24.5394L26.2989 7.6644L24.3261 7.3356L21.5136 24.2106L23.4864 24.5394ZM7.5 24.375C6.60557 24.8222 6.60619 24.8234 6.60681 24.8247C6.60702 24.8251 6.60765 24.8263 6.60808 24.8272C6.60893 24.8289 6.60981 24.8306 6.6107 24.8323C6.61249 24.8358 6.61436 24.8394 6.61632 24.8431C6.62023 24.8505 6.62447 24.8584 6.62906 24.8666C6.63825 24.8831 6.64884 24.9013 6.66096 24.9209C6.68523 24.9603 6.71556 25.0055 6.7531 25.0556C6.82835 25.1559 6.93144 25.2742 7.07074 25.4028C7.35005 25.6606 7.76692 25.9525 8.38292 26.2263C9.60745 26.7705 11.6335 27.25 15 27.25V25.25C11.804 25.25 10.0801 24.792 9.1952 24.3987C8.75652 24.2037 8.52885 24.0269 8.4273 23.9332C8.37618 23.886 8.35475 23.8578 8.3531 23.8556C8.35219 23.8543 8.35597 23.8593 8.3633 23.8712C8.36696 23.8771 8.37147 23.8847 8.37671 23.8941C8.37933 23.8988 8.38213 23.904 8.38509 23.9096C8.38657 23.9124 8.38809 23.9153 8.38964 23.9184C8.39042 23.9199 8.39121 23.9214 8.39201 23.923C8.39241 23.9238 8.39301 23.925 8.39321 23.9254C8.39382 23.9266 8.39443 23.9278 7.5 24.375ZM15 27.25C18.3665 27.25 20.3926 26.7705 21.6171 26.2263C22.2331 25.9525 22.6499 25.6606 22.9293 25.4028C23.0686 25.2742 23.1716 25.1559 23.2469 25.0556C23.2844 25.0055 23.3148 24.9603 23.339 24.9209C23.3512 24.9013 23.3617 24.8831 23.3709 24.8666C23.3755 24.8584 23.3798 24.8505 23.3837 24.8431C23.3856 24.8394 23.3875 24.8358 23.3893 24.8323C23.3902 24.8306 23.3911 24.8289 23.3919 24.8272C23.3923 24.8263 23.393 24.8251 23.3932 24.8247C23.3938 24.8234 23.3944 24.8222 22.5 24.375C21.6056 23.9278 21.6062 23.9266 21.6068 23.9254C21.607 23.925 21.6076 23.9238 21.608 23.923C21.6088 23.9214 21.6096 23.9199 21.6104 23.9184C21.6119 23.9153 21.6134 23.9124 21.6149 23.9096C21.6179 23.904 21.6207 23.8988 21.6233 23.8941C21.6285 23.8847 21.633 23.8771 21.6367 23.8712C21.644 23.8593 21.6478 23.8543 21.6469 23.8556C21.6452 23.8578 21.6238 23.886 21.5727 23.9332C21.4711 24.0269 21.2435 24.2037 20.8048 24.3987C19.9199 24.792 18.196 25.25 15 25.25V27.25ZM16.6366 14.7616L11.9491 19.4491L13.3634 20.8634L18.0509 16.1759L16.6366 14.7616ZM11.9491 16.1759L16.6366 20.8634L18.0509 19.4491L13.3634 14.7616L11.9491 16.1759Z" fill="#146BE2"/>
</svg>
