<svg xmlns="http://www.w3.org/2000/svg" width="16" height="16" fill="none" viewBox="0 0 16 16">
  <path fill="#146BE2" d="M2.91 13.783l-.74.128a.75.75 0 00.074.219l.665-.347zm10.18 0l.666.347a.75.75 0 00.074-.219l-.74-.128zm-2.98-5.241a.75.75 0 10-1.038-1.084l1.037 1.084zm-4.22 1.96a.75.75 0 001.038 1.083L5.89 10.502zm1.038-3.044A.75.75 0 105.89 8.542l1.037-1.084zm2.144 4.127a.75.75 0 001.037-1.084l-1.037 1.085zm5.178-8.759c0-.161.112-.116-.194.073-.264.162-.695.336-1.296.493-1.188.31-2.872.51-4.76.51v1.5c1.978 0 3.794-.208 5.14-.559.666-.174 1.26-.394 1.704-.668.402-.248.906-.684.906-1.349h-1.5zM8 3.902c-1.888 0-3.572-.2-4.76-.51-.6-.157-1.032-.33-1.296-.493-.306-.189-.194-.234-.194-.073H.25c0 .665.503 1.1.906 1.35.445.273 1.038.493 1.705.667 1.345.35 3.161.56 5.139.56v-1.5zM1.75 2.826c0 .161-.112.116.194-.072.264-.163.696-.337 1.296-.493C4.428 1.95 6.112 1.75 8 1.75V.25c-1.978 0-3.794.208-5.14.56-.666.173-1.26.393-1.704.667-.403.248-.906.684-.906 1.35h1.5zM8 1.75c1.888 0 3.572.2 4.76.51.6.157 1.032.33 1.296.494.306.188.194.233.194.072h1.5c0-.665-.504-1.1-.906-1.35-.445-.273-1.038-.493-1.705-.667C11.794.46 9.978.25 8 .25v1.5zM.261 2.955l1.91 10.956 1.477-.257-1.91-10.957-1.477.258zM13.83 13.91l1.909-10.956-1.478-.258-1.909 10.957 1.478.257zm-10.92-.128c-.666.347-.665.348-.665.349l.001.002a.246.246 0 00.007.012.606.606 0 00.034.057 1.804 1.804 0 00.295.332c.197.174.486.367.909.546.84.357 2.221.669 4.509.669v-1.5c-2.167 0-3.33-.297-3.922-.549a1.869 1.869 0 01-.503-.29c-.032-.028-.042-.042-.04-.039a.267.267 0 01.024.037.403.403 0 01.007.012l.004.007.002.003v.002c.001.001.002.002-.663.35zM8 15.75c2.288 0 3.67-.312 4.51-.668.422-.18.712-.373.908-.547a1.804 1.804 0 00.295-.332.895.895 0 00.024-.04l.01-.017a.322.322 0 00.005-.008c0-.002 0-.003.002-.004v-.002c.001-.001.002-.002-.663-.35a25.826 25.826 0 01-.663-.35l.002-.004a.202.202 0 01.01-.019.54.54 0 01.025-.037c.002-.003-.008.011-.04.039a1.87 1.87 0 01-.503.29c-.592.252-1.755.549-3.922.549v1.5zm1.072-8.292l-3.181 3.043 1.037 1.085 3.181-3.044-1.037-1.084zM5.891 8.542l3.181 3.043 1.037-1.084-3.181-3.043L5.89 8.542z"/>
</svg>
