<svg width="30" height="30" viewBox="0 0 30 30" fill="none" xmlns="http://www.w3.org/2000/svg">
<path d="M15 16.4062V8.90625M27.1875 15C27.1875 18.2323 25.9035 21.3323 23.6179 23.6179C21.3323 25.9035 18.2323 27.1875 15 27.1875C11.7677 27.1875 8.66774 25.9035 6.38214 23.6179C4.09654 21.3323 2.8125 18.2323 2.8125 15C2.8125 11.7677 4.09654 8.66774 6.38213 6.38214C8.66773 4.09654 11.7677 2.8125 15 2.8125C18.2323 2.8125 21.3323 4.09653 23.6179 6.38213C25.9035 8.66773 27.1875 11.7677 27.1875 15Z" stroke="#DB1D1D" stroke-width="2" stroke-linecap="round" stroke-linejoin="round"/>
<path d="M15.9062 20.625C15.9062 21.1255 15.5005 21.5312 15 21.5312C14.4995 21.5312 14.0938 21.1255 14.0938 20.625C14.0938 20.1245 14.4995 19.7188 15 19.7188C15.5005 19.7188 15.9062 20.1245 15.9062 20.625Z" fill="#DB1D1D" stroke="#DB1D1D"/>
</svg>
